HIERARCHY
ROOT Hips
{
	OFFSET 0.000000 0.000000 0.000000 
	CHANNELS 6 Xposition Yposition Zposition Zrotation Yrotation Xrotation
	JOINT LeftUpLeg
	{
		OFFSET 1.363060 -1.794630 0.839290 
		CHANNELS 3 Zrotation Yrotation Xrotation
		JOINT LeftLeg
		{
			OFFSET 2.448110 -6.726130 0.000000 
			CHANNELS 3 Zrotation Yrotation Xrotation
			JOINT LeftFoot
			{
				OFFSET 2.562200 -7.039590 0.000000 
				CHANNELS 3 Zrotation Yrotation Xrotation
				JOINT LeftToeBase
				{
					OFFSET 0.157640 -0.433110 2.322550 
					CHANNELS 3 Zrotation Yrotation Xrotation
					End Site
					{
						OFFSET 0.000000 0.000000 0.000000 
					}
				}
			}
		}
	}
	JOINT RightUpLeg
	{
		OFFSET -1.305520 -1.794630 0.839290 
		CHANNELS 3 Zrotation Yrotation Xrotation
		JOINT RightLeg
		{
			OFFSET -2.542530 -6.985550 0.000000 
			CHANNELS 3 Zrotation Yrotation Xrotation
			JOINT RightFoot
			{
				OFFSET -2.568260 -7.056230 0.000000 
				CHANNELS 3 Zrotation Yrotation Xrotation
				JOINT RightToeBase
				{
					OFFSET -0.164730 -0.452590 2.363150 
					CHANNELS 3 Zrotation Yrotation Xrotation
					End Site
					{
						OFFSET 0.000000 0.000000 0.000000 
					}
				}
			}
		}
	}
	JOINT Spine
	{
		OFFSET 0.028270 2.035590 -0.193380 
		CHANNELS 3 Zrotation Yrotation Xrotation
		JOINT Spine1
		{
			OFFSET 0.056720 2.048850 -0.042750 
			CHANNELS 3 Zrotation Yrotation Xrotation
			JOINT Neck1
			{
				OFFSET -0.054170 1.746240 0.172020 
				CHANNELS 3 Zrotation Yrotation Xrotation
				JOINT Head
				{
					OFFSET 0.104070 1.761360 -0.123970 
					CHANNELS 3 Zrotation Yrotation Xrotation
					End Site
					{
						OFFSET 0.000000 0.000000 0.000000 
					}
				}
			}
			JOINT LeftArm
			{
				OFFSET 3.362410 1.200890 -0.311210 
				CHANNELS 3 Zrotation Yrotation Xrotation
				JOINT LeftForeArm
				{
					OFFSET 4.983000 -0.000000 -0.000000 
					CHANNELS 3 Zrotation Yrotation Xrotation
					JOINT LeftHand
					{
						OFFSET 3.483560 -0.000000 -0.000000 
						CHANNELS 3 Zrotation Yrotation Xrotation
						JOINT LeftHandIndex1
						{
							OFFSET 0.715260 -0.000000 -0.000000 
							CHANNELS 3 Zrotation Yrotation Xrotation
							End Site
							{
								OFFSET 0.000000 0.000000 0.000000 
							}
						}
					}
				}
			}
			JOINT RightArm
			{
				OFFSET -3.136600 1.374050 -0.404650 
				CHANNELS 3 Zrotation Yrotation Xrotation
				JOINT RightForeArm
				{
					OFFSET -5.241900 -0.000000 -0.000000 
					CHANNELS 3 Zrotation Yrotation Xrotation
					JOINT RightHand
					{
						OFFSET -3.444170 -0.000000 -0.000000 
						CHANNELS 3 Zrotation Yrotation Xrotation
						JOINT RightHandIndex1
						{
							OFFSET -0.622530 -0.000000 -0.000000 
							CHANNELS 3 Zrotation Yrotation Xrotation
							End Site
							{
								OFFSET 0.000000 0.000000 0.000000 
							}
						}
					}
				}
			}
		}
	}
}
MOTION
Frames: 9
Frame Time: 0.041667
33.567776 17.711749 6.249861 -34.306638 -86.405059 42.525580 -15.351771 -6.960501 -8.507928 -0.134363 6.932265 18.248925 0.621610 -0.447652 0.779516 0.134500 -2.364000 -6.512700 16.882559 -3.679995 -33.190635 -9.506913 -18.119647 58.322561 3.549698 -17.891307 -5.448602 -0.114000 -2.177300 5.995800 0.372922 -2.792288 -3.846326 4.544616 -1.851392 0.284519 6.109353 -6.213406 -0.048520 3.753700 -3.143300 2.457700 -96.269279 -1.758810 -19.275106 1.153428 -13.851897 -0.995982 2.853329 0.584503 56.620439 -7.125000 0.000000 0.000000 88.293438 -6.994511 6.236088 -5.546869 14.666810 -0.730370 -0.371409 0.718878 25.664637 7.125000 0.000000 0.000000 
33.457248 17.724634 6.254391 -34.311259 -86.482170 42.592640 -15.476420 -6.708768 -7.962051 -0.188970 6.759615 17.757103 0.603400 -0.354994 0.748634 0.114700 -2.183300 -6.012400 16.832145 -3.465829 -33.876213 -9.015161 -17.854318 56.784138 3.551349 -17.858656 -6.213160 -0.082900 -1.857100 5.110800 0.390363 -2.871237 -3.786834 4.584008 -1.891676 0.511148 6.167886 -6.120016 0.104601 3.710100 -3.079100 2.686800 -96.123310 -2.580472 -15.443713 1.327926 -14.719211 -1.058141 2.852831 0.844078 54.217506 -7.125000 0.000000 0.000000 88.387332 -6.471488 7.125299 -5.726896 14.980084 -0.781702 -0.364292 0.716927 24.858495 7.125000 0.000000 0.000000 
33.348532 17.734801 6.258317 -33.730397 -86.600722 42.104818 -15.673577 -6.431245 -7.532622 -0.225742 6.640217 17.401618 0.569527 -0.192217 0.627757 0.132400 -2.345300 -6.460900 16.740985 -3.219344 -34.494505 -8.465917 -17.526870 54.977885 3.666840 -18.295867 -6.588387 -0.053000 -1.485900 4.086900 0.406697 -3.022360 -3.650932 4.577506 -1.972297 1.121895 6.454161 -5.948218 -0.120127 3.817800 -2.969700 2.624100 -95.940669 -3.310502 -11.129097 1.696674 -15.890593 -1.149189 2.785141 1.076076 51.167925 -7.125000 0.000000 0.000000 88.462161 -5.762411 8.152687 -5.905942 15.315010 -0.826285 -0.370908 0.717279 24.066905 7.125000 0.000000 0.000000 
33.239917 17.739129 6.262545 -33.898553 -86.734530 42.333142 -15.842438 -6.235730 -7.049773 -0.269787 6.484427 16.964944 0.537427 -0.042054 0.524925 0.142400 -2.432000 -6.701100 16.664366 -3.039563 -35.008509 -7.885492 -17.150288 53.054509 3.689847 -18.350966 -6.932613 -0.065000 -1.645200 4.526100 0.458296 -3.143369 -3.770007 4.738348 -2.026380 0.673633 6.456198 -5.767380 -0.181617 3.786900 -2.883600 2.549700 -95.819543 -3.004323 -6.038517 2.455787 -17.666845 -1.318058 2.679910 1.382575 47.161998 -7.125000 0.000000 0.000000 88.310449 -5.943333 9.398679 -6.174516 15.792286 -0.903616 -0.367240 0.719449 23.132402 7.125000 0.000000 0.000000 
33.130697 17.744263 6.266370 -34.199961 -86.848234 42.708094 -15.994176 -6.021634 -6.591710 -0.306711 6.348502 16.581051 0.507588 0.097690 0.409225 0.149800 -2.493700 -6.872300 16.601175 -2.825926 -35.535286 -7.317033 -16.757599 51.130221 3.725400 -18.459870 -7.225416 -0.063600 -1.627000 4.476000 0.498164 -3.255183 -3.795958 4.831821 -2.079878 0.601477 6.592669 -5.601713 -0.252860 3.822600 -2.793400 2.532300 -95.614245 -3.115746 -1.636974 3.241394 -19.246594 -1.484100 2.569694 1.642675 43.833853 -7.125000 0.000000 0.000000 88.249738 -5.758153 10.524634 -6.413245 16.210993 -0.969919 -0.366582 0.721831 22.259711 7.125000 0.000000 0.000000 
33.021277 17.746981 6.269692 -34.654534 -86.952992 43.236761 -16.131557 -5.831811 -6.149523 -0.339116 6.222504 16.228333 0.480558 0.222737 0.276337 0.158500 -2.565000 -7.069900 16.549117 -2.625068 -36.003037 -6.726968 -16.315942 49.076986 3.760096 -18.560861 -7.374055 -0.065000 -1.644300 4.523700 0.548153 -3.375137 -3.857067 4.953828 -2.134970 0.394069 6.739286 -5.419122 -0.336237 3.873300 -2.698300 2.482300 -95.390002 -3.044553 2.574654 4.203211 -20.935034 -1.685692 2.440938 1.883257 40.570199 -7.125000 0.000000 0.000000 88.139030 -5.689453 11.691923 -6.667078 16.650880 -1.040505 -0.366014 0.725799 21.380242 7.125000 0.000000 0.000000 
32.911353 17.747383 6.272309 -35.175693 -87.050166 43.844167 -16.255360 -5.666865 -5.724774 -0.368173 6.105663 15.902087 0.459203 0.320550 0.131343 0.165600 -2.621900 -7.227800 16.504989 -2.439693 -36.415296 -6.119723 -15.824026 46.899999 3.789235 -18.633625 -7.370920 -0.067900 -1.681700 4.626700 0.599496 -3.487443 -3.918827 5.074031 -2.185364 0.184839 6.883289 -5.249031 -0.408090 3.918300 -2.609000 2.449900 -95.128811 -2.986562 6.472216 5.285432 -22.639477 -1.916918 2.304039 2.093203 37.529848 -7.125000 0.000000 0.000000 88.033312 -5.583014 12.831530 -6.929271 17.096537 -1.113668 -0.365305 0.730289 20.527595 7.125000 0.000000 0.000000 
32.800724 17.745672 6.274222 -35.583382 -87.138531 44.349914 -16.366215 -5.526570 -5.322928 -0.393359 6.001081 15.610961 0.446297 0.379605 -0.025437 0.171700 -2.669400 -7.359700 16.463252 -2.267199 -36.768998 -5.499881 -15.277368 44.595994 3.818587 -18.701756 -7.176966 -0.069800 -1.704900 4.690800 0.652338 -3.597124 -3.981781 5.193649 -2.233442 -0.026709 7.027253 -5.088533 -0.478395 3.960900 -2.524000 2.426200 -94.836144 -2.947110 9.994817 6.441852 -24.305930 -2.172500 2.166856 2.259673 34.818708 -7.125000 0.000000 0.000000 87.932147 -5.448000 13.949118 -7.200151 17.548784 -1.189104 -0.364793 0.735525 19.677373 7.125000 0.000000 0.000000 
32.689391 17.741847 6.275430 -35.596625 -87.230213 44.484334 -16.476604 -5.414475 -4.941885 -0.416581 5.905363 15.342788 0.442998 0.394524 -0.193908 0.176600 -2.707200 -7.464600 16.407368 -2.103862 -37.064141 -4.874170 -14.674805 42.172245 3.844709 -18.756250 -6.772249 -0.071200 -1.722000 4.738000 0.698882 -3.702702 -4.020061 5.284682 -2.280998 -0.127748 7.166235 -4.947019 -0.556478 3.990800 -2.445800 2.415200 -94.501775 -3.040024 13.122320 7.624083 -25.890892 -2.445680 2.034266 2.384496 32.477404 -7.125000 0.000000 0.000000 87.875809 -5.196219 15.009104 -7.476327 18.004591 -1.267634 -0.364389 0.740287 18.858251 7.125000 0.000000 0.000000 
